<svg xmlns="http://www.w3.org/2000/svg" viewBox="0 0 120 120" fill="none"><defs><linearGradient id="g" x1="0" y1="0" x2="1" y2="1"><stop stop-color="#fff1b6"/><stop offset=".4" stop-color="#c58b37"/><stop offset=".75" stop-color="#f6d68a"/><stop offset="1" stop-color="#8d4b20"/></linearGradient><radialGradient id="f"><stop stop-color="#fffbe0"/><stop offset=".45" stop-color="#ffd068"/><stop offset="1" stop-color="#ef7624"/></radialGradient><linearGradient id="b" x1="0" y1="0" x2="0" y2="1"><stop stop-color="#fbd58a"/><stop offset=".48" stop-color="#a85b23"/><stop offset="1" stop-color="#4e1c12"/></linearGradient></defs><g stroke-linecap="round" stroke-linejoin="round"><path d="M60 13C48 30 51 43 60 50C69 43 72 30 60 13Z" fill="url(#f)" stroke="#eec374" stroke-width="1.5"/><path d="M60 25C55 35 57 43 60 46C63 42 65 34 60 25Z" fill="#fff9dc"/><path d="M60 53C48 37 35 39 31 48C27 58 43 67 60 75C77 67 93 58 89 48C85 39 72 37 60 53Z" stroke="url(#g)" stroke-width="2"/><path d="M60 75C48 59 30 58 18 64C27 83 41 93 60 93C79 93 93 83 102 64C90 58 72 59 60 75Z" fill="#5c1d15" stroke="url(#g)" stroke-width="2.5"/><path d="M60 75C50 67 44 56 43 48M60 75C70 67 76 56 77 48M22 66C35 69 48 81 60 89C72 81 85 69 98 66" stroke="url(#g)" stroke-width="1.5"/><path d="M32 96H88M43 102H77" stroke="url(#g)" stroke-width="2.5"/><path d="M60 8V5M38 20L35 16M82 20L85 16M27 35L22 33M93 35L98 33" stroke="#e8bc73" stroke-width="1.5"/></g></svg>